<?xml version="1.0" standalone="no"?>
<!DOCTYPE svg PUBLIC "-//W3C//DTD SVG 20010904//EN"
 "http://www.w3.org/TR/2001/REC-SVG-20010904/DTD/svg10.dtd">
<svg version="1.0" xmlns="http://www.w3.org/2000/svg"
 width="512.000000pt" height="512.000000pt" viewBox="0 0 512.000000 512.000000"
 preserveAspectRatio="xMidYMid meet">

<g transform="translate(0.000000,512.000000) scale(0.100000,-0.100000)"
fill="#000000" stroke="none">
<path d="M2482 5040 c-164 -43 -296 -150 -370 -299 -23 -46 -42 -92 -42 -102
0 -27 -7 -24 -57 22 -138 127 -359 144 -521 40 -105 -68 -172 -173 -193 -300
-20 -120 20 -257 100 -344 l41 -44 -29 -12 c-15 -7 -42 -27 -59 -44 -63 -65
-62 -55 -62 -624 0 -479 2 -521 19 -558 26 -59 80 -101 144 -115 37 -7 285
-10 829 -8 l775 3 49 30 c58 37 91 89 100 163 4 33 11 52 18 49 6 -3 107 -48
224 -101 228 -103 262 -111 319 -76 66 40 64 22 61 629 l-3 549 -25 27 c-33
37 -85 58 -121 50 -16 -4 -127 -51 -246 -105 l-218 -98 -12 65 c-19 105 -80
167 -175 179 l-48 7 64 67 c214 228 208 578 -14 800 -144 144 -352 201 -548
150z m229 -105 c26 -3 78 -21 117 -39 178 -86 286 -290 254 -482 -38 -227
-231 -394 -457 -394 -225 0 -419 166 -458 393 -33 193 75 397 255 482 71 34
166 55 218 49 14 -2 46 -6 71 -9z m-859 -304 c204 -87 258 -360 102 -514 -123
-122 -310 -129 -438 -15 -124 109 -142 299 -40 432 84 111 247 153 376 97z
m367 -553 l55 -58 -123 0 -124 0 27 33 c14 17 38 54 52 81 l26 48 15 -23 c9
-13 41 -50 72 -81z m846 -203 l25 -24 0 -514 0 -514 -26 -27 -27 -26 -788 0
-788 0 -28 24 -28 24 0 515 0 515 24 26 24 26 794 0 794 0 24 -25z m652 -530
c2 -290 -1 -516 -6 -524 -7 -12 -56 7 -253 96 l-243 110 -2 309 -3 309 238
107 c130 59 244 106 252 105 13 -2 15 -68 17 -512z"/>
<path d="M2523 4753 c-62 -21 -136 -92 -163 -155 -62 -144 -2 -306 138 -375
122 -60 273 -25 353 81 45 59 59 104 59 188 0 155 -130 279 -289 277 -31 0
-75 -7 -98 -16z m164 -108 c50 -21 72 -42 94 -90 54 -118 -28 -245 -157 -245
-186 1 -240 254 -70 331 50 23 85 24 133 4z"/>
<path d="M1657 4525 c-77 -27 -127 -100 -127 -185 0 -67 18 -107 68 -152 45
-41 89 -53 158 -45 153 17 224 206 121 324 -58 66 -139 88 -220 58z m132 -131
c47 -60 7 -144 -69 -144 -33 0 -80 53 -80 90 0 73 104 111 149 54z"/>
<path d="M1680 3792 c-19 -9 -45 -32 -57 -51 -23 -34 -23 -36 -23 -405 0 -350
1 -373 20 -403 42 -70 23 -68 632 -68 536 0 547 0 574 21 15 11 37 33 48 48
20 26 21 42 24 388 3 351 2 361 -19 404 -14 31 -33 51 -60 64 -37 19 -61 20
-571 20 -487 0 -536 -2 -568 -18z m1095 -457 l0 -350 -524 -3 c-413 -2 -526 0
-533 10 -9 16 -11 682 -1 691 3 4 243 6 532 5 l526 -3 0 -350z"/>
<path d="M2059 3615 c-15 -8 -32 -29 -38 -46 -14 -42 -15 -396 0 -437 7 -19
23 -36 45 -47 33 -16 37 -15 77 4 23 12 105 63 182 113 205 136 207 158 25
280 -148 99 -231 148 -250 148 -8 -1 -27 -7 -41 -15z m280 -265 c0 -6 -193
-130 -202 -130 -4 0 -7 61 -7 135 l0 134 105 -67 c57 -37 104 -69 104 -72z"/>
<path d="M1040 3586 c-30 -7 -78 -24 -106 -38 -68 -36 -156 -133 -186 -205
l-23 -58 -3 -974 c-2 -844 0 -982 13 -1033 41 -159 176 -277 343 -299 37 -4
281 -8 543 -9 l476 0 19 -57 c27 -81 25 -237 -2 -313 l-20 -55 -53 -7 c-185
-27 -351 -214 -351 -396 0 -89 -75 -82 872 -82 947 0 868 -8 868 84 0 180
-167 367 -351 394 l-53 7 -20 55 c-27 76 -29 232 -2 313 l19 57 476 0 c262 1
506 5 543 9 123 16 242 93 303 196 57 98 56 76 53 1136 l-3 974 -23 58 c-31
76 -118 170 -192 207 -31 16 -85 34 -119 40 -53 10 -66 9 -87 -5 -50 -33 -19
-105 46 -105 48 0 118 -31 166 -73 49 -43 94 -123 94 -169 l0 -26 -126 -4
-126 -3 -29 -33 c-29 -32 -29 -32 -29 -167 0 -135 0 -135 29 -167 l29 -33 131
-3 131 -4 0 -54 0 -54 -120 0 c-128 0 -169 -11 -190 -49 -5 -11 -10 -83 -10
-160 0 -133 1 -141 24 -168 24 -28 27 -28 158 -33 l133 -5 3 -52 3 -53 -116 0
c-124 0 -175 -13 -194 -48 -6 -12 -11 -81 -11 -164 l0 -144 28 -27 c26 -25 32
-26 157 -29 114 -3 130 -5 133 -20 3 -17 -84 -18 -1728 -18 -1644 0 -1731 1
-1728 18 3 15 19 17 130 20 127 3 127 3 158 33 l30 31 0 137 c0 195 -15 211
-210 211 l-111 0 3 53 3 52 133 5 c131 5 134 5 158 33 23 27 24 35 24 168 0
77 -5 149 -10 160 -21 38 -62 49 -190 49 l-120 0 0 54 0 54 136 4 c135 3 136
3 160 31 23 27 24 34 24 173 l0 146 -29 29 c-29 29 -30 29 -155 29 l-126 0 0
28 c0 46 44 125 94 169 48 42 118 73 166 73 39 0 70 26 70 60 0 18 -8 34 -22
44 -26 18 -34 19 -108 2z m0 -581 l0 -96 -102 3 -103 3 -3 79 c-2 44 -1 85 2
93 4 10 31 13 106 13 l100 0 0 -95z m3245 0 l0 -90 -102 -3 -103 -3 0 96 0 96
103 -3 102 -3 0 -90z m-3245 -525 l0 -91 -102 3 -103 3 -3 88 -3 87 106 0 105
0 0 -90z m3248 3 l-3 -88 -102 -3 -103 -3 0 91 0 90 105 0 106 0 -3 -87z
m-3248 -523 l0 -91 -102 3 -103 3 -3 88 -3 87 106 0 105 0 0 -90z m3248 3 l-3
-88 -102 -3 -103 -3 0 91 0 90 105 0 106 0 -3 -87z m-4 -504 c0 -138 -2 -149
-28 -202 -15 -31 -47 -74 -71 -95 -88 -77 29 -72 -1624 -72 -1282 0 -1484 2
-1528 15 -66 20 -135 81 -169 151 -24 48 -27 69 -32 188 -2 74 -2 141 1 150 6
15 164 16 1729 14 l1723 -3 -1 -146z m-1389 -506 c-4 -10 -13 -54 -21 -98 -12
-64 -13 -97 -4 -163 6 -46 15 -94 20 -108 6 -14 10 -27 10 -30 0 -2 -153 -4
-341 -4 -315 0 -341 1 -335 17 38 97 38 289 0 386 -6 16 20 17 336 17 322 0
342 -1 335 -17z m243 -551 c64 -34 118 -87 146 -145 49 -96 127 -87 -724 -87
-708 0 -750 1 -750 18 1 52 72 153 137 193 79 49 76 49 628 46 l520 -2 43 -23z"/>
<path d="M2486 1555 c-78 -28 -145 -119 -146 -199 -1 -129 94 -226 220 -226
158 0 266 163 201 305 -48 106 -168 158 -275 120z m137 -125 c38 -30 52 -80
33 -123 -15 -37 -59 -67 -96 -67 -37 0 -81 30 -96 67 -29 68 21 143 96 143 22
0 48 -8 63 -20z"/>
</g>
</svg>
